{
  "accessors": [
    {
      "bufferView": 2,
      "componentType": 5126,
      "count": 120,
      "max": [
        0.07880828529596329,
        -0.11436625570058823,
        0.08950331807136536
      ],
      "min": [
        -0.07880833745002747,
        -0.8627488017082214,
        -0.08950331807136536
      ],
      "type": "VEC3"
    },
    {
      "bufferView": 2,
      "byteOffset": 1440,
      "componentType": 5126,
      "count": 120,
      "max": [
        1.0,
        4.289302523829974e-06,
        0.9934702515602112
      ],
      "min": [
        -1.0,
        -6.968903676352056e-08,
        -0.9934702515602112
      ],
      "type": "VEC3"
    },
    {
      "bufferView": 1,
      "componentType": 5126,
      "count": 120,
      "max": [
        1.0,
        0.5005766153335571
      ],
      "min": [
        -8.940696716308594e-08,
        0.4999999701976776
      ],
      "type": "VEC2"
    },
    {
      "bufferView": 0,
      "componentType": 5125,
      "count": 180,
      "type": "SCALAR"
    },
    {
      "bufferView": 2,
      "byteOffset": 2880,
      "componentType": 5126,
      "count": 120,
      "max": [
        0.07880828529596329,
        0.019717980176210403,
        0.08950013667345047
      ],
      "min": [
        -0.07880828529596329,
        -0.11436625570058823,
        -0.08950013667345047
      ],
      "type": "VEC3"
    },
    {
      "bufferView": 2,
      "byteOffset": 4320,
      "componentType": 5126,
      "count": 120,
      "max": [
        0.955657422542572,
        0.3333143889904022,
        0.9366593360900879
      ],
      "min": [
        -0.9556574821472168,
        0.29448071122169495,
        -0.9366592764854431
      ],
      "type": "VEC3"
    },
    {
      "bufferView": 1,
      "byteOffset": 960,
      "componentType": 5126,
      "count": 120,
      "max": [
        1.0,
        0.8270301818847656
      ],
      "min": [
        -8.940696716308594e-08,
        0.5
      ],
      "type": "VEC2"
    },
    {
      "bufferView": 0,
      "byteOffset": 720,
      "componentType": 5125,
      "count": 180,
      "type": "SCALAR"
    },
    {
      "bufferView": 2,
      "byteOffset": 5760,
      "componentType": 5126,
      "count": 1236,
      "max": [
        0.07880823314189911,
        0.09099996834993362,
        0.08950391411781311
      ],
      "min": [
        -0.07880840450525284,
        -1.0054495334625244,
        -0.08950391411781311
      ],
      "type": "VEC3"
    },
    {
      "bufferView": 2,
      "byteOffset": 20592,
      "componentType": 5126,
      "count": 1236,
      "max": [
        1.0,
        1.0,
        0.9934701919555664
      ],
      "min": [
        -1.0,
        -1.0,
        -0.9934701919555664
      ],
      "type": "VEC3"
    },
    {
      "bufferView": 1,
      "byteOffset": 1920,
      "componentType": 5126,
      "count": 1236,
      "max": [
        1.0,
        1.0084760189056396
      ],
      "min": [
        -8.940696716308594e-08,
        0.03782942518591881
      ],
      "type": "VEC2"
    },
    {
      "bufferView": 0,
      "byteOffset": 1440,
      "componentType": 5125,
      "count": 1824,
      "type": "SCALAR"
    },
    {
      "bufferView": 2,
      "byteOffset": 35424,
      "componentType": 5126,
      "count": 120,
      "max": [
        0.07880823314189911,
        -0.8627488017082214,
        0.08950391411781311
      ],
      "min": [
        -0.07880833745002747,
        -0.8822234272956848,
        -0.08950391411781311
      ],
      "type": "VEC3"
    },
    {
      "bufferView": 2,
      "byteOffset": 36864,
      "componentType": 5126,
      "count": 120,
      "max": [
        1.0,
        3.067072975682095e-05,
        0.9934701919555664
      ],
      "min": [
        -1.0,
        -7.39988763598376e-08,
        -0.9934701919555664
      ],
      "type": "VEC3"
    },
    {
      "bufferView": 1,
      "byteOffset": 11808,
      "componentType": 5126,
      "count": 120,
      "max": [
        1.0,
        0.5
      ],
      "min": [
        -8.940696716308594e-08,
        0.4999999701976776
      ],
      "type": "VEC2"
    },
    {
      "bufferView": 0,
      "byteOffset": 8736,
      "componentType": 5125,
      "count": 180,
      "type": "SCALAR"
    },
    {
      "bufferView": 2,
      "byteOffset": 38304,
      "componentType": 5126,
      "count": 1010,
      "max": [
        0.09698405861854553,
        0.07740143686532974,
        0.09099996089935303
      ],
      "min": [
        -0.09099996089935303,
        -0.002803019480779767,
        -0.09099996089935303
      ],
      "type": "VEC3"
    },
    {
      "bufferView": 2,
      "byteOffset": 50424,
      "componentType": 5126,
      "count": 1010,
      "max": [
        0.9949663281440735,
        0.9978330135345459,
        0.9991244077682495
      ],
      "min": [
        -0.9975259900093079,
        -0.9955592155456543,
        -0.9991610646247864
      ],
      "type": "VEC3"
    },
    {
      "bufferView": 1,
      "byteOffset": 12768,
      "componentType": 5126,
      "count": 1010,
      "max": [
        1.0055359601974487,
        1.0027297735214233
      ],
      "min": [
        0.0,
        -0.00536092184484005
      ],
      "type": "VEC2"
    },
    {
      "bufferView": 0,
      "byteOffset": 9456,
      "componentType": 5125,
      "count": 4554,
      "type": "SCALAR"
    },
    {
      "bufferView": 2,
      "byteOffset": 62544,
      "componentType": 5126,
      "count": 24,
      "max": [
        0.09099996089935303,
        0.022999674081802368,
        0.09099996089935303
      ],
      "min": [
        -0.08817704766988754,
        0.0,
        -0.09099996089935303
      ],
      "type": "VEC3"
    },
    {
      "bufferView": 2,
      "byteOffset": 62832,
      "componentType": 5126,
      "count": 24,
      "max": [
        1.0,
        1.0,
        1.0
      ],
      "min": [
        -1.0,
        -1.0,
        -1.0
      ],
      "type": "VEC3"
    },
    {
      "bufferView": 1,
      "byteOffset": 20848,
      "componentType": 5126,
      "count": 24,
      "max": [
        1.0,
        1.0
      ],
      "min": [
        0.0,
        0.0
      ],
      "type": "VEC2"
    },
    {
      "bufferView": 0,
      "byteOffset": 27672,
      "componentType": 5125,
      "count": 36,
      "type": "SCALAR"
    },
    {
      "bufferView": 2,
      "byteOffset": 63120,
      "componentType": 5126,
      "count": 676,
      "max": [
        0.09100453555583954,
        0.033221617341041565,
        0.09099996089935303
      ],
      "min": [
        -0.08817704766988754,
        0.023000480607151985,
        -0.09099996089935303
      ],
      "type": "VEC3"
    },
    {
      "bufferView": 2,
      "byteOffset": 71232,
      "componentType": 5126,
      "count": 676,
      "max": [
        0.9999988675117493,
        0.9999988079071045,
        1.0
      ],
      "min": [
        -0.9994696378707886,
        -0.9999988079071045,
        -1.0
      ],
      "type": "VEC3"
    },
    {
      "bufferView": 1,
      "byteOffset": 21040,
      "componentType": 5126,
      "count": 676,
      "max": [
        1.0,
        1.0
      ],
      "min": [
        0.0,
        0.0
      ],
      "type": "VEC2"
    },
    {
      "bufferView": 0,
      "byteOffset": 27816,
      "componentType": 5125,
      "count": 3252,
      "type": "SCALAR"
    },
    {
      "bufferView": 2,
      "byteOffset": 79344,
      "componentType": 5126,
      "count": 676,
      "max": [
        0.09101259708404541,
        0.05067694932222366,
        0.09099996089935303
      ],
      "min": [
        -0.08817704766988754,
        0.02300388365983963,
        -0.09099996089935303
      ],
      "type": "VEC3"
    },
    {
      "bufferView": 2,
      "byteOffset": 87456,
      "componentType": 5126,
      "count": 676,
      "max": [
        0.9999663829803467,
        0.9999661445617676,
        1.0
      ],
      "min": [
        -0.9858533143997192,
        -0.9999660849571228,
        -0.9999999403953552
      ],
      "type": "VEC3"
    },
    {
      "bufferView": 1,
      "byteOffset": 26448,
      "componentType": 5126,
      "count": 676,
      "max": [
        1.0,
        1.0
      ],
      "min": [
        0.0,
        0.0
      ],
      "type": "VEC2"
    },
    {
      "bufferView": 0,
      "byteOffset": 40824,
      "componentType": 5125,
      "count": 3252,
      "type": "SCALAR"
    }
  ],
  "asset": {
    "extras": {
      "author": "rikugo.studio (https://sketchfab.com/rikugo.studio)",
      "license": "CC-BY-4.0 (http://creativecommons.org/licenses/by/4.0/)",
      "source": "https://sketchfab.com/3d-models/book-and-pencil-set-e09e3d31f6f84b108d1bd34856663abc",
      "title": "Book and Pencil Set"
    },
    "generator": "Sketchfab-13.4.0",
    "version": "2.0"
  },
  "bufferViews": [
    {
      "buffer": 0,
      "byteLength": 53832,
      "name": "floatBufferViews",
      "target": 34963
    },
    {
      "buffer": 0,
      "byteLength": 31856,
      "byteOffset": 53832,
      "byteStride": 8,
      "name": "floatBufferViews",
      "target": 34962
    },
    {
      "buffer": 0,
      "byteLength": 95568,
      "byteOffset": 85688,
      "byteStride": 12,
      "name": "floatBufferViews",
      "target": 34962
    }
  ],
  "buffers": [
    {
      "byteLength": 181256,
      "uri": "scene.bin"
    }
  ],
  "materials": [
    {
      "doubleSided": true,
      "name": "Material",
      "pbrMetallicRoughness": {
        "baseColorFactor": [
          0.0139771,
          0.0513071,
          0.221231,
          1.0
        ],
        "metallicFactor": 0.0,
        "roughnessFactor": 0.40566
      }
    },
    {
      "doubleSided": true,
      "name": "Kayu",
      "pbrMetallicRoughness": {
        "baseColorFactor": [
          0.408859,
          0.244148,
          0.157067,
          1.0
        ],
        "metallicFactor": 0.0,
        "roughnessFactor": 0.754717
      }
    },
    {
      "doubleSided": true,
      "name": "Pensil",
      "pbrMetallicRoughness": {
        "baseColorFactor": [
          0.0040514,
          0.0040514,
          0.0040514,
          1.0
        ],
        "metallicFactor": 0.075472,
        "roughnessFactor": 0.358491
      }
    },
    {
      "doubleSided": true,
      "name": "material",
      "pbrMetallicRoughness": {
        "baseColorFactor": [
          0.8,
          0.8,
          0.8,
          1.0
        ],
        "metallicFactor": 0.0,
        "roughnessFactor": 0.5
      }
    },
    {
      "doubleSided": true,
      "name": "Cover.001",
      "pbrMetallicRoughness": {
        "baseColorFactor": [
          0.8,
          0.0272495,
          0.0025469,
          1.0
        ],
        "metallicFactor": 0.0,
        "roughnessFactor": 0.5
      }
    },
    {
      "doubleSided": true,
      "name": "Paper",
      "pbrMetallicRoughness": {
        "metallicFactor": 0.0,
        "roughnessFactor": 0.5
      }
    }
  ],
  "meshes": [
    {
      "name": "Object_0",
      "primitives": [
        {
          "attributes": {
            "NORMAL": 1,
            "POSITION": 0,
            "TEXCOORD_0": 2
          },
          "indices": 3,
          "material": 0,
          "mode": 4
        }
      ]
    },
    {
      "name": "Object_1",
      "primitives": [
        {
          "attributes": {
            "NORMAL": 5,
            "POSITION": 4,
            "TEXCOORD_0": 6
          },
          "indices": 7,
          "material": 1,
          "mode": 4
        }
      ]
    },
    {
      "name": "Object_2",
      "primitives": [
        {
          "attributes": {
            "NORMAL": 9,
            "POSITION": 8,
            "TEXCOORD_0": 10
          },
          "indices": 11,
          "material": 2,
          "mode": 4
        }
      ]
    },
    {
      "name": "Object_3",
      "primitives": [
        {
          "attributes": {
            "NORMAL": 13,
            "POSITION": 12,
            "TEXCOORD_0": 14
          },
          "indices": 15,
          "material": 3,
          "mode": 4
        }
      ]
    },
    {
      "name": "Object_4",
      "primitives": [
        {
          "attributes": {
            "NORMAL": 17,
            "POSITION": 16,
            "TEXCOORD_0": 18
          },
          "indices": 19,
          "material": 4,
          "mode": 4
        }
      ]
    },
    {
      "name": "Object_5",
      "primitives": [
        {
          "attributes": {
            "NORMAL": 21,
            "POSITION": 20,
            "TEXCOORD_0": 22
          },
          "indices": 23,
          "material": 5,
          "mode": 4
        }
      ]
    },
    {
      "name": "Object_6",
      "primitives": [
        {
          "attributes": {
            "NORMAL": 25,
            "POSITION": 24,
            "TEXCOORD_0": 26
          },
          "indices": 27,
          "material": 5,
          "mode": 4
        }
      ]
    },
    {
      "name": "Object_7",
      "primitives": [
        {
          "attributes": {
            "NORMAL": 29,
            "POSITION": 28,
            "TEXCOORD_0": 30
          },
          "indices": 31,
          "material": 5,
          "mode": 4
        }
      ]
    }
  ],
  "nodes": [
    {
      "children": [
        1
      ],
      "matrix": [
        1.5120846033096313,
        0.0,
        0.0,
        0.0,
        0.0,
        3.357502283551098e-16,
        -1.5120846033096313,
        0.0,
        0.0,
        1.5120846033096313,
        3.357502283551098e-16,
        0.0,
        0.0,
        0.0,
        0.0,
        1.0
      ],
      "name": "Sketchfab_model"
    },
    {
      "children": [
        2
      ],
      "name": "root"
    },
    {
      "children": [
        3,
        8,
        10,
        12,
        14
      ],
      "matrix": [
        1.0,
        0.0,
        0.0,
        0.0,
        0.0,
        2.220446049250313e-16,
        1.0,
        0.0,
        0.0,
        -1.0,
        2.220446049250313e-16,
        0.0,
        0.0,
        0.0,
        0.0,
        1.0
      ],
      "name": "GLTF_SceneRootNode"
    },
    {
      "children": [
        4,
        5,
        6,
        7
      ],
      "matrix": [
        -0.10284359316955186,
        0.04577232818420169,
        -0.015177664598619406,
        -0.0,
        -0.04595028008851598,
        -0.10386222323762541,
        -0.001866153803773571,
        -0.0,
        0.014630081676374246,
        -0.004450251996251666,
        -0.1125541121123845,
        -0.0,
        -0.018546398729085922,
        0.14741641283035278,
        -0.11400265991687775,
        1.0
      ],
      "name": "Cylinder_1"
    },
    {
      "mesh": 0,
      "name": "Object_4"
    },
    {
      "mesh": 1,
      "name": "Object_5"
    },
    {
      "mesh": 2,
      "name": "Object_6"
    },
    {
      "mesh": 3,
      "name": "Object_7"
    },
    {
      "children": [
        9
      ],
      "matrix": [
        0.7270130063389182,
        0.11801054721295173,
        -0.08936393525495485,
        0.0,
        -0.14123362865992972,
        0.12656946425297078,
        -0.9818519403933901,
        0.0,
        -0.14092720531739758,
        0.979122288252396,
        0.14648913764788218,
        0.0,
        3.5308810765855014e-05,
        0.2072441279888153,
        0.000245465780608356,
        1.0
      ],
      "name": "Cover_2"
    },
    {
      "mesh": 4,
      "name": "Object_9"
    },
    {
      "children": [
        11
      ],
      "matrix": [
        0.7270130063389182,
        0.11801054721295173,
        -0.08936393525495485,
        0.0,
        -0.14123362865992972,
        0.12656946425297078,
        -0.9818519403933901,
        0.0,
        -0.13674079637585915,
        0.9500363052218832,
        0.14213750494285443,
        0.0,
        3.5308810765855014e-05,
        0.2072441279888153,
        0.000245465780608356,
        1.0
      ],
      "name": "Kertas Tebal_3"
    },
    {
      "mesh": 5,
      "name": "Object_11"
    },
    {
      "children": [
        13
      ],
      "matrix": [
        0.7270130063389182,
        0.11801054721295173,
        -0.08936393525495485,
        0.0,
        -0.14123362865992972,
        0.12656946425297078,
        -0.9818519403933901,
        0.0,
        -0.13674079637585915,
        0.9500363052218832,
        0.14213750494285443,
        0.0,
        3.5308810765855014e-05,
        0.2072441279888153,
        0.000245465780608356,
        1.0
      ],
      "name": "Halaman 2_4"
    },
    {
      "mesh": 6,
      "name": "Object_13"
    },
    {
      "children": [
        15
      ],
      "matrix": [
        0.7270130063389182,
        0.11801054721295173,
        -0.08936393525495485,
        0.0,
        -0.14123362865992972,
        0.12656946425297078,
        -0.9818519403933901,
        0.0,
        -0.13674079637585915,
        0.9500363052218832,
        0.14213750494285443,
        0.0,
        -0.00010592643229756504,
        0.20737071335315704,
        -0.0007363972836174071,
        1.0
      ],
      "name": "Halaman 1_5"
    },
    {
      "mesh": 7,
      "name": "Object_15"
    }
  ],
  "scene": 0,
  "scenes": [
    {
      "name": "Sketchfab_Scene",
      "nodes": [
        0
      ]
    }
  ]
}
